<?xml version="1.0" encoding="UTF-8" standalone="no"?>
<!DOCTYPE svg PUBLIC "-//W3C//DTD SVG 1.1//EN" "http://www.w3.org/Graphics/SVG/1.1/DTD/svg11.dtd">
<svg width="100%" height="100%" viewBox="0 0 4267 800" version="1.1" xmlns="http://www.w3.org/2000/svg" xmlns:xlink="http://www.w3.org/1999/xlink" xml:space="preserve" xmlns:serif="http://www.serif.com/" style="fill-rule:evenodd;clip-rule:evenodd;stroke-linejoin:round;stroke-miterlimit:2;">
    <g transform="matrix(1,0,0,1,-4317.99,0)">
        <g id="CGBS_Logo_FullColor_Light" transform="matrix(1,0,0,1,4317.99,0)">
            <rect x="0" y="0" width="4266.67" height="800" style="fill:none;"/>
            <g transform="matrix(1,0,0,1,141.554,79.5128)">
                <g transform="matrix(0.903709,0,0,0.903658,9.11734,15.9607)">
                    <g transform="matrix(24.7048,0,0,24.7048,-2.88138,91.037)">
                        <path d="M36.268,4.592C35.727,4.592 35.243,4.708 34.817,4.94C34.392,5.165 34.028,5.494 33.726,5.927C33.424,6.36 33.192,6.891 33.029,7.518C32.875,8.137 32.797,8.841 32.797,9.631C32.797,10.699 32.933,11.597 33.203,12.324C33.474,13.052 33.885,13.601 34.434,13.973C34.991,14.344 35.688,14.53 36.524,14.53C37.282,14.53 38.01,14.426 38.707,14.217C39.411,14.008 40.119,13.756 40.831,13.462L40.831,17.34C40.08,17.673 39.31,17.912 38.521,18.06C37.739,18.207 36.907,18.28 36.025,18.28C34.183,18.28 32.673,17.916 31.497,17.189C30.328,16.453 29.465,15.436 28.908,14.135C28.358,12.835 28.083,11.326 28.083,9.607C28.083,8.323 28.261,7.146 28.618,6.078C28.981,5.01 29.511,4.085 30.208,3.303C30.905,2.514 31.764,1.906 32.785,1.48C33.815,1.047 34.991,0.83 36.315,0.83C37.135,0.83 37.998,0.927 38.904,1.121C39.817,1.306 40.707,1.608 41.574,2.026L40.169,5.637C39.55,5.343 38.923,5.095 38.289,4.894C37.654,4.693 36.981,4.592 36.268,4.592Z" style="fill:white;fill-rule:nonzero;"/>
                        <path d="M50.294,4.662C51.958,4.662 53.258,5.076 54.195,5.904C55.131,6.724 55.599,7.897 55.599,9.422L55.599,18.048L52.453,18.048L51.582,16.306L51.489,16.306C51.118,16.771 50.735,17.15 50.34,17.444C49.953,17.731 49.508,17.94 49.005,18.071C48.502,18.21 47.886,18.28 47.159,18.28C46.4,18.28 45.719,18.125 45.115,17.816C44.512,17.506 44.036,17.038 43.687,16.411C43.339,15.784 43.165,14.991 43.165,14.031C43.165,12.622 43.653,11.577 44.628,10.896C45.603,10.215 47.016,9.832 48.866,9.747L51.06,9.677L51.06,9.491C51.06,8.903 50.913,8.485 50.619,8.237C50.332,7.99 49.945,7.866 49.458,7.866C48.939,7.866 48.359,7.959 47.716,8.145C47.081,8.323 46.443,8.555 45.8,8.841L44.489,5.846C45.247,5.459 46.106,5.165 47.066,4.963C48.026,4.762 49.102,4.662 50.294,4.662ZM51.083,12.173L50.038,12.22C49.202,12.251 48.614,12.398 48.273,12.661C47.941,12.916 47.774,13.284 47.774,13.764C47.774,14.213 47.894,14.546 48.134,14.762C48.374,14.971 48.691,15.076 49.086,15.076C49.636,15.076 50.104,14.902 50.491,14.553C50.886,14.205 51.083,13.752 51.083,13.195L51.083,12.173Z" style="fill:white;fill-rule:nonzero;"/>
                        <path d="M66.919,4.662C68.274,4.662 69.381,5.045 70.24,5.811C71.099,6.577 71.528,7.804 71.528,9.491L71.528,18.048L66.989,18.048L66.989,10.873C66.989,9.998 66.861,9.34 66.606,8.899C66.358,8.45 65.956,8.226 65.398,8.226C64.539,8.226 63.963,8.578 63.668,9.282C63.374,9.979 63.227,10.981 63.227,12.289L63.227,18.048L58.688,18.048L58.688,4.894L62.113,4.894L62.728,6.635L62.902,6.635C63.181,6.217 63.514,5.861 63.901,5.567C64.288,5.273 64.733,5.049 65.236,4.894C65.739,4.739 66.3,4.662 66.919,4.662Z" style="fill:white;fill-rule:nonzero;"/>
                        <path d="M73.026,4.894L77.81,4.894L80.039,12.44C80.07,12.549 80.101,12.684 80.132,12.847C80.163,13.001 80.19,13.168 80.213,13.346C80.236,13.524 80.252,13.698 80.259,13.868L80.352,13.868C80.391,13.551 80.433,13.276 80.48,13.044C80.534,12.804 80.584,12.611 80.631,12.463L82.918,4.894L87.55,4.894L82.349,18.884C81.947,19.952 81.478,20.846 80.944,21.566C80.418,22.293 79.764,22.839 78.982,23.203C78.208,23.574 77.245,23.76 76.091,23.76C75.673,23.76 75.313,23.737 75.012,23.69C74.717,23.652 74.458,23.609 74.234,23.563L74.234,19.998C74.404,20.029 74.613,20.06 74.861,20.091C75.108,20.122 75.368,20.138 75.638,20.138C76.142,20.138 76.548,20.037 76.858,19.836C77.175,19.635 77.434,19.368 77.635,19.035C77.837,18.71 78.011,18.358 78.158,17.978L78.204,17.862L73.026,4.894Z" style="fill:white;fill-rule:nonzero;"/>
                        <path d="M101.68,11.442C101.68,12.541 101.529,13.516 101.227,14.368C100.925,15.219 100.488,15.935 99.915,16.515C99.342,17.096 98.65,17.537 97.837,17.839C97.024,18.133 96.107,18.28 95.085,18.28C94.133,18.28 93.259,18.133 92.462,17.839C91.672,17.537 90.983,17.096 90.395,16.515C89.807,15.935 89.35,15.219 89.025,14.368C88.708,13.516 88.549,12.541 88.549,11.442C88.549,9.987 88.812,8.756 89.338,7.75C89.873,6.744 90.631,5.977 91.614,5.451C92.605,4.925 93.785,4.662 95.155,4.662C96.417,4.662 97.539,4.925 98.522,5.451C99.505,5.977 100.275,6.744 100.832,7.75C101.397,8.756 101.68,9.987 101.68,11.442ZM93.158,11.442C93.158,12.193 93.224,12.827 93.356,13.346C93.487,13.857 93.696,14.248 93.982,14.518C94.277,14.782 94.66,14.913 95.132,14.913C95.604,14.913 95.979,14.782 96.258,14.518C96.537,14.248 96.738,13.857 96.862,13.346C96.993,12.827 97.059,12.193 97.059,11.442C97.059,10.691 96.993,10.064 96.862,9.561C96.738,9.058 96.533,8.679 96.246,8.423C95.968,8.168 95.589,8.04 95.109,8.04C94.42,8.04 93.921,8.326 93.611,8.899C93.309,9.472 93.158,10.32 93.158,11.442Z" style="fill:white;fill-rule:nonzero;"/>
                        <path d="M112.501,4.662C113.855,4.662 114.962,5.045 115.821,5.811C116.68,6.577 117.11,7.804 117.11,9.491L117.11,18.048L112.57,18.048L112.57,10.873C112.57,9.998 112.443,9.34 112.187,8.899C111.939,8.45 111.537,8.226 110.98,8.226C110.121,8.226 109.544,8.578 109.25,9.282C108.956,9.979 108.809,10.981 108.809,12.289L108.809,18.048L104.269,18.048L104.269,4.894L107.694,4.894L108.309,6.635L108.484,6.635C108.762,6.217 109.095,5.861 109.482,5.567C109.869,5.273 110.314,5.049 110.817,4.894C111.32,4.739 111.881,4.662 112.501,4.662Z" style="fill:white;fill-rule:nonzero;"/>
                        <path d="M133.464,8.11L140.79,8.11L140.79,17.258C139.916,17.56 138.913,17.808 137.783,18.001C136.653,18.187 135.469,18.28 134.23,18.28C132.597,18.28 131.165,17.963 129.935,17.328C128.704,16.693 127.744,15.73 127.056,14.437C126.367,13.137 126.022,11.496 126.022,9.515C126.022,7.734 126.363,6.198 127.044,4.905C127.725,3.605 128.727,2.603 130.051,1.898C131.382,1.186 133.011,0.83 134.939,0.83C135.999,0.83 137.005,0.931 137.957,1.132C138.909,1.333 139.738,1.589 140.442,1.898L138.991,5.497C138.379,5.196 137.744,4.971 137.087,4.824C136.429,4.669 135.72,4.592 134.962,4.592C133.948,4.592 133.131,4.82 132.512,5.277C131.901,5.734 131.456,6.345 131.177,7.111C130.898,7.87 130.759,8.71 130.759,9.631C130.759,10.683 130.906,11.573 131.2,12.301C131.502,13.021 131.939,13.57 132.512,13.95C133.093,14.321 133.793,14.507 134.614,14.507C134.885,14.507 135.213,14.487 135.6,14.449C135.995,14.41 136.293,14.364 136.494,14.309L136.494,11.651L133.464,11.651L133.464,8.11Z" style="fill:white;fill-rule:nonzero;"/>
                        <path d="M144.25,1.074L150.171,1.074C152.625,1.074 154.374,1.438 155.419,2.165C156.464,2.893 156.986,3.938 156.986,5.3C156.986,6.043 156.851,6.674 156.58,7.193C156.317,7.711 155.98,8.121 155.57,8.423C155.167,8.725 154.753,8.93 154.328,9.039L154.328,9.155C154.792,9.271 155.252,9.464 155.709,9.735C156.174,9.998 156.557,10.397 156.859,10.931C157.168,11.457 157.323,12.173 157.323,13.079C157.323,14.108 157.06,14.994 156.533,15.738C156.015,16.481 155.272,17.053 154.304,17.456C153.337,17.851 152.187,18.048 150.856,18.048L144.25,18.048L144.25,1.074ZM148.836,7.587L150.218,7.587C150.976,7.587 151.51,7.432 151.82,7.123C152.129,6.806 152.284,6.422 152.284,5.973C152.284,5.509 152.106,5.157 151.75,4.917C151.402,4.669 150.86,4.545 150.125,4.545L148.836,4.545L148.836,7.587ZM148.836,10.943L148.836,14.507L150.45,14.507C151.247,14.507 151.804,14.337 152.122,13.996C152.439,13.648 152.598,13.214 152.598,12.696C152.598,12.394 152.528,12.111 152.389,11.848C152.257,11.577 152.029,11.361 151.704,11.198C151.379,11.028 150.93,10.943 150.357,10.943L148.836,10.943Z" style="fill:white;fill-rule:nonzero;"/>
                        <path d="M171.371,12.893C171.371,13.814 171.139,14.689 170.675,15.517C170.21,16.337 169.487,17.003 168.504,17.514C167.528,18.025 166.267,18.28 164.719,18.28C163.945,18.28 163.264,18.245 162.675,18.176C162.095,18.106 161.553,17.994 161.05,17.839C160.547,17.676 160.024,17.467 159.483,17.212L159.483,13.125C160.404,13.59 161.332,13.946 162.269,14.193C163.206,14.433 164.053,14.553 164.812,14.553C165.268,14.553 165.64,14.499 165.926,14.391C166.22,14.282 166.437,14.135 166.576,13.95C166.716,13.756 166.785,13.535 166.785,13.288C166.785,12.994 166.681,12.746 166.472,12.545C166.271,12.336 165.945,12.119 165.497,11.895C165.048,11.67 164.456,11.391 163.72,11.059C163.093,10.765 162.524,10.463 162.014,10.153C161.51,9.843 161.077,9.491 160.713,9.097C160.357,8.694 160.082,8.226 159.889,7.692C159.695,7.158 159.599,6.527 159.599,5.799C159.599,4.708 159.866,3.795 160.4,3.059C160.942,2.316 161.692,1.759 162.652,1.388C163.62,1.016 164.734,0.83 165.996,0.83C167.103,0.83 168.097,0.954 168.98,1.202C169.87,1.449 170.667,1.732 171.371,2.049L169.966,5.59C169.239,5.258 168.523,4.994 167.819,4.801C167.114,4.6 166.46,4.499 165.856,4.499C165.462,4.499 165.137,4.549 164.881,4.65C164.634,4.743 164.448,4.871 164.324,5.033C164.208,5.196 164.15,5.381 164.15,5.59C164.15,5.854 164.25,6.09 164.452,6.299C164.661,6.508 165.005,6.736 165.485,6.984C165.973,7.224 166.634,7.537 167.47,7.924C168.298,8.295 169.003,8.698 169.583,9.131C170.164,9.557 170.605,10.072 170.907,10.676C171.216,11.272 171.371,12.011 171.371,12.893Z" style="fill:white;fill-rule:nonzero;"/>
                    </g>
                    <g transform="matrix(0,-24.7048,-24.7048,0,145.347,461.609)">
                        <rect x="-3" y="1" width="6" height="4" style="fill:rgb(225,81,175);"/>
                    </g>
                    <g transform="matrix(0,-24.7048,-24.7048,0,404.748,350.438)">
                        <rect x="-7.5" y="5.5" width="15" height="4" style="fill:rgb(190,215,216);"/>
                    </g>
                    <g transform="matrix(0,-24.7048,-24.7048,0,503.567,399.847)">
                        <rect x="-5.5" y="3.5" width="11" height="4" style="fill:rgb(254,212,63);"/>
                    </g>
                    <g transform="matrix(0,-24.7048,-24.7048,0,725.91,325.733)">
                        <rect x="-8.5" y="6.5" width="17" height="4" style="fill:rgb(43,184,179);"/>
                    </g>
                </g>
                <g transform="matrix(1,0,0,1,-232.25,9.32784)">
                    <g transform="matrix(162.5,0,0,162.5,4082.54,99.5339)">
                        <path d="M0.274,-0.138L0.274,-0.58L0.407,-0.58C0.462,-0.58 0.501,-0.569 0.527,-0.545C0.552,-0.522 0.565,-0.489 0.565,-0.446C0.565,-0.414 0.557,-0.389 0.541,-0.371C0.525,-0.353 0.507,-0.34 0.487,-0.332L0.603,-0.138L0.512,-0.138L0.417,-0.306L0.355,-0.306L0.355,-0.138L0.274,-0.138ZM0.355,-0.373L0.405,-0.373C0.431,-0.373 0.45,-0.38 0.463,-0.393C0.476,-0.406 0.483,-0.423 0.483,-0.444C0.483,-0.468 0.477,-0.485 0.465,-0.495C0.453,-0.506 0.433,-0.511 0.404,-0.511L0.355,-0.511L0.355,-0.373ZM0.416,0.01C0.363,0.01 0.314,0.001 0.269,-0.017C0.224,-0.035 0.186,-0.061 0.152,-0.094C0.119,-0.127 0.094,-0.165 0.076,-0.21C0.058,-0.255 0.049,-0.304 0.049,-0.357C0.049,-0.408 0.058,-0.455 0.076,-0.5C0.095,-0.544 0.121,-0.583 0.154,-0.617C0.187,-0.65 0.226,-0.676 0.271,-0.695C0.316,-0.715 0.364,-0.724 0.416,-0.724C0.467,-0.724 0.514,-0.715 0.559,-0.697C0.603,-0.679 0.642,-0.653 0.676,-0.62C0.709,-0.587 0.736,-0.549 0.754,-0.504C0.774,-0.459 0.783,-0.41 0.783,-0.357C0.783,-0.304 0.774,-0.255 0.756,-0.21C0.738,-0.165 0.712,-0.127 0.679,-0.094C0.646,-0.061 0.608,-0.035 0.563,-0.017C0.518,0.001 0.469,0.01 0.416,0.01ZM0.416,-0.054C0.457,-0.054 0.495,-0.062 0.531,-0.076C0.567,-0.091 0.599,-0.112 0.626,-0.139C0.653,-0.166 0.675,-0.198 0.69,-0.235C0.705,-0.272 0.713,-0.313 0.713,-0.357C0.713,-0.399 0.705,-0.438 0.69,-0.475C0.675,-0.511 0.654,-0.544 0.627,-0.572C0.601,-0.6 0.569,-0.622 0.533,-0.637C0.497,-0.653 0.458,-0.661 0.416,-0.661C0.373,-0.661 0.334,-0.654 0.297,-0.639C0.261,-0.624 0.23,-0.603 0.203,-0.575C0.176,-0.548 0.155,-0.516 0.14,-0.479C0.125,-0.442 0.117,-0.401 0.117,-0.357C0.117,-0.313 0.125,-0.272 0.139,-0.235C0.154,-0.198 0.174,-0.166 0.201,-0.139C0.228,-0.112 0.259,-0.091 0.296,-0.076C0.332,-0.062 0.372,-0.054 0.416,-0.054Z" style="fill:white;fill-rule:nonzero;"/>
                    </g>
                </g>
            </g>
        </g>
    </g>
</svg>
