<?xml version="1.0" encoding="UTF-8" standalone="no"?>
<!DOCTYPE svg PUBLIC "-//W3C//DTD SVG 1.1//EN" "http://www.w3.org/Graphics/SVG/1.1/DTD/svg11.dtd">
<svg width="100%" height="100%" viewBox="0 0 4185 800" version="1.1" xmlns="http://www.w3.org/2000/svg" xmlns:xlink="http://www.w3.org/1999/xlink" xml:space="preserve" xmlns:serif="http://www.serif.com/" style="fill-rule:evenodd;clip-rule:evenodd;stroke-linejoin:round;stroke-miterlimit:2;">
    <g id="AdvisingApp_Logo_FullColor_Dark" transform="matrix(4.73341,0,0,5.47945,0,0)">
        <rect x="0" y="0" width="884" height="146" style="fill:none;"/>
        <g id="Layer-1" serif:id="Layer 1" transform="matrix(1.00371,0,0,0.867054,-1.59289,19.74)">
            <rect id="_-Path-" serif:id="&lt;Path&gt;" x="583" y="124.366" width="296" height="6.731" style="fill:rgb(63,105,254);"/>
            <g id="canyon-gbs-r" serif:id="canyon gbs r">
                <g id="BY-CANYON-GBS™" serif:id="BY CANYON GBS™" transform="matrix(1,0,0,1,0.874658,140.143)">
                    <g transform="matrix(38,0,0,36.86,0,0)">
                        <path d="M0.094,-0.714L0.306,-0.714C0.398,-0.714 0.468,-0.701 0.515,-0.674C0.562,-0.647 0.585,-0.601 0.585,-0.536C0.585,-0.508 0.58,-0.484 0.57,-0.461C0.561,-0.44 0.547,-0.422 0.529,-0.407C0.511,-0.393 0.488,-0.384 0.461,-0.379L0.461,-0.374C0.489,-0.369 0.514,-0.361 0.535,-0.348C0.557,-0.336 0.574,-0.318 0.586,-0.295C0.599,-0.272 0.605,-0.242 0.605,-0.205C0.605,-0.161 0.595,-0.124 0.574,-0.094C0.554,-0.063 0.524,-0.04 0.486,-0.024C0.448,-0.008 0.403,-0 0.35,-0L0.094,-0L0.094,-0.714ZM0.211,-0.419L0.323,-0.419C0.376,-0.419 0.413,-0.428 0.434,-0.445C0.454,-0.463 0.464,-0.488 0.464,-0.521C0.464,-0.555 0.452,-0.579 0.428,-0.594C0.404,-0.609 0.365,-0.617 0.313,-0.617L0.211,-0.617L0.211,-0.419ZM0.211,-0.325L0.211,-0.098L0.334,-0.098C0.389,-0.098 0.428,-0.109 0.45,-0.13C0.472,-0.151 0.483,-0.18 0.483,-0.216C0.483,-0.238 0.478,-0.257 0.468,-0.273C0.458,-0.29 0.442,-0.302 0.419,-0.311C0.397,-0.32 0.367,-0.325 0.329,-0.325L0.211,-0.325Z" style="fill:rgb(77,82,100);fill-rule:nonzero;"/>
                    </g>
                    <g transform="matrix(38,0,0,36.86,41.9968,0)">
                        <path d="M0.296,-0.388L0.465,-0.714L0.592,-0.714L0.354,-0.277L0.354,-0L0.238,-0L0.238,-0.273L0,-0.714L0.127,-0.714L0.296,-0.388Z" style="fill:rgb(77,82,100);fill-rule:nonzero;"/>
                    </g>
                    <g transform="matrix(38,0,0,36.86,108.252,0)">
                        <path d="M0.398,-0.625C0.364,-0.625 0.333,-0.618 0.306,-0.606C0.279,-0.594 0.257,-0.576 0.238,-0.552C0.22,-0.529 0.206,-0.501 0.196,-0.468C0.186,-0.435 0.181,-0.398 0.181,-0.356C0.181,-0.301 0.189,-0.253 0.205,-0.213C0.22,-0.174 0.244,-0.143 0.276,-0.122C0.308,-0.1 0.348,-0.09 0.397,-0.09C0.427,-0.09 0.457,-0.093 0.485,-0.099C0.514,-0.104 0.544,-0.112 0.574,-0.123L0.574,-0.023C0.545,-0.012 0.516,-0.003 0.486,0.002C0.457,0.007 0.423,0.01 0.384,0.01C0.311,0.01 0.25,-0.005 0.202,-0.036C0.154,-0.066 0.118,-0.109 0.095,-0.164C0.071,-0.219 0.06,-0.283 0.06,-0.357C0.06,-0.411 0.067,-0.46 0.082,-0.505C0.097,-0.55 0.119,-0.589 0.147,-0.622C0.176,-0.654 0.211,-0.68 0.253,-0.697C0.296,-0.715 0.344,-0.724 0.398,-0.724C0.434,-0.724 0.469,-0.72 0.504,-0.712C0.539,-0.704 0.571,-0.693 0.601,-0.678L0.56,-0.582C0.535,-0.593 0.509,-0.603 0.482,-0.612C0.455,-0.62 0.427,-0.625 0.398,-0.625Z" style="fill:rgb(77,82,100);fill-rule:nonzero;"/>
                    </g>
                    <g transform="matrix(38,0,0,36.86,149.284,0)">
                        <path d="M0.536,-0L0.466,-0.198L0.193,-0.198L0.124,-0L0,-0L0.266,-0.717L0.396,-0.717L0.661,-0L0.536,-0ZM0.436,-0.299L0.368,-0.494C0.366,-0.503 0.362,-0.514 0.357,-0.53C0.352,-0.545 0.347,-0.561 0.342,-0.577C0.337,-0.593 0.333,-0.607 0.33,-0.618C0.327,-0.605 0.323,-0.59 0.318,-0.573C0.313,-0.557 0.309,-0.542 0.304,-0.527C0.3,-0.513 0.297,-0.502 0.294,-0.494L0.226,-0.299L0.436,-0.299Z" style="fill:rgb(77,82,100);fill-rule:nonzero;"/>
                    </g>
                    <g transform="matrix(38,0,0,36.86,191.355,0)">
                        <path d="M0.689,-0L0.545,-0L0.196,-0.57L0.191,-0.57C0.193,-0.551 0.194,-0.53 0.195,-0.509C0.196,-0.487 0.197,-0.465 0.198,-0.442C0.199,-0.42 0.2,-0.396 0.2,-0.373L0.2,-0L0.094,-0L0.094,-0.714L0.237,-0.714L0.586,-0.148L0.589,-0.148C0.589,-0.165 0.588,-0.184 0.587,-0.205C0.586,-0.227 0.585,-0.249 0.584,-0.271C0.583,-0.295 0.583,-0.317 0.583,-0.338L0.583,-0.714L0.689,-0.714L0.689,-0Z" style="fill:rgb(77,82,100);fill-rule:nonzero;"/>
                    </g>
                    <g transform="matrix(38,0,0,36.86,238.065,0)">
                        <path d="M0.296,-0.388L0.465,-0.714L0.592,-0.714L0.354,-0.277L0.354,-0L0.238,-0L0.238,-0.273L0,-0.714L0.127,-0.714L0.296,-0.388Z" style="fill:rgb(77,82,100);fill-rule:nonzero;"/>
                    </g>
                    <g transform="matrix(38,0,0,36.86,277.501,0)">
                        <path d="M0.728,-0.358C0.728,-0.303 0.721,-0.253 0.707,-0.208C0.693,-0.163 0.672,-0.124 0.645,-0.091C0.617,-0.059 0.582,-0.034 0.541,-0.017C0.499,0.001 0.45,0.01 0.394,0.01C0.337,0.01 0.288,0.001 0.246,-0.017C0.204,-0.034 0.169,-0.059 0.142,-0.092C0.114,-0.124 0.094,-0.163 0.08,-0.208C0.066,-0.254 0.06,-0.304 0.06,-0.359C0.06,-0.432 0.072,-0.497 0.096,-0.551C0.12,-0.606 0.157,-0.649 0.207,-0.679C0.256,-0.71 0.319,-0.725 0.395,-0.725C0.469,-0.725 0.531,-0.71 0.58,-0.68C0.629,-0.649 0.666,-0.607 0.69,-0.552C0.715,-0.497 0.728,-0.432 0.728,-0.358ZM0.183,-0.358C0.183,-0.303 0.19,-0.255 0.205,-0.215C0.22,-0.175 0.243,-0.144 0.274,-0.122C0.305,-0.101 0.345,-0.09 0.394,-0.09C0.443,-0.09 0.483,-0.101 0.514,-0.122C0.545,-0.144 0.568,-0.175 0.583,-0.215C0.597,-0.255 0.604,-0.303 0.604,-0.358C0.604,-0.442 0.588,-0.507 0.554,-0.554C0.521,-0.602 0.468,-0.625 0.395,-0.625C0.346,-0.625 0.306,-0.615 0.274,-0.593C0.243,-0.572 0.22,-0.541 0.205,-0.501C0.19,-0.461 0.183,-0.414 0.183,-0.358Z" style="fill:rgb(77,82,100);fill-rule:nonzero;"/>
                    </g>
                    <g transform="matrix(38,0,0,36.86,324.359,0)">
                        <path d="M0.689,-0L0.545,-0L0.196,-0.57L0.191,-0.57C0.193,-0.551 0.194,-0.53 0.195,-0.509C0.196,-0.487 0.197,-0.465 0.198,-0.442C0.199,-0.42 0.2,-0.396 0.2,-0.373L0.2,-0L0.094,-0L0.094,-0.714L0.237,-0.714L0.586,-0.148L0.589,-0.148C0.589,-0.165 0.588,-0.184 0.587,-0.205C0.586,-0.227 0.585,-0.249 0.584,-0.271C0.583,-0.295 0.583,-0.317 0.583,-0.338L0.583,-0.714L0.689,-0.714L0.689,-0Z" style="fill:rgb(77,82,100);fill-rule:nonzero;"/>
                    </g>
                    <g transform="matrix(38,0,0,36.86,397.888,0)">
                        <path d="M0.382,-0.388L0.648,-0.388L0.648,-0.029C0.611,-0.017 0.572,-0.007 0.532,-0C0.492,0.006 0.447,0.01 0.397,0.01C0.325,0.01 0.263,-0.005 0.213,-0.033C0.163,-0.062 0.125,-0.104 0.099,-0.159C0.073,-0.214 0.06,-0.28 0.06,-0.357C0.06,-0.432 0.074,-0.497 0.103,-0.551C0.132,-0.606 0.174,-0.649 0.229,-0.679C0.285,-0.709 0.352,-0.724 0.431,-0.724C0.469,-0.724 0.507,-0.72 0.543,-0.712C0.579,-0.705 0.613,-0.694 0.643,-0.681L0.602,-0.584C0.578,-0.596 0.551,-0.605 0.521,-0.613C0.491,-0.621 0.46,-0.625 0.428,-0.625C0.377,-0.625 0.333,-0.614 0.295,-0.592C0.259,-0.57 0.23,-0.538 0.21,-0.498C0.191,-0.458 0.181,-0.411 0.181,-0.356C0.181,-0.303 0.189,-0.256 0.205,-0.216C0.221,-0.176 0.245,-0.145 0.279,-0.123C0.313,-0.1 0.358,-0.089 0.412,-0.089C0.439,-0.089 0.462,-0.091 0.48,-0.094C0.499,-0.097 0.517,-0.1 0.533,-0.104L0.533,-0.288L0.382,-0.288L0.382,-0.388Z" style="fill:rgb(77,82,100);fill-rule:nonzero;"/>
                    </g>
                    <g transform="matrix(38,0,0,36.86,442.408,0)">
                        <path d="M0.094,-0.714L0.306,-0.714C0.398,-0.714 0.468,-0.701 0.515,-0.674C0.562,-0.647 0.585,-0.601 0.585,-0.536C0.585,-0.508 0.58,-0.484 0.57,-0.461C0.561,-0.44 0.547,-0.422 0.529,-0.407C0.511,-0.393 0.488,-0.384 0.461,-0.379L0.461,-0.374C0.489,-0.369 0.514,-0.361 0.535,-0.348C0.557,-0.336 0.574,-0.318 0.586,-0.295C0.599,-0.272 0.605,-0.242 0.605,-0.205C0.605,-0.161 0.595,-0.124 0.574,-0.094C0.554,-0.063 0.524,-0.04 0.486,-0.024C0.448,-0.008 0.403,-0 0.35,-0L0.094,-0L0.094,-0.714ZM0.211,-0.419L0.323,-0.419C0.376,-0.419 0.413,-0.428 0.434,-0.445C0.454,-0.463 0.464,-0.488 0.464,-0.521C0.464,-0.555 0.452,-0.579 0.428,-0.594C0.404,-0.609 0.365,-0.617 0.313,-0.617L0.211,-0.617L0.211,-0.419ZM0.211,-0.325L0.211,-0.098L0.334,-0.098C0.389,-0.098 0.428,-0.109 0.45,-0.13C0.472,-0.151 0.483,-0.18 0.483,-0.216C0.483,-0.238 0.478,-0.257 0.468,-0.273C0.458,-0.29 0.442,-0.302 0.419,-0.311C0.397,-0.32 0.367,-0.325 0.329,-0.325L0.211,-0.325Z" style="fill:rgb(77,82,100);fill-rule:nonzero;"/>
                    </g>
                    <g transform="matrix(38,0,0,36.86,484.405,0)">
                        <path d="M0.506,-0.194C0.506,-0.152 0.495,-0.116 0.475,-0.085C0.454,-0.054 0.424,-0.031 0.386,-0.015C0.347,0.002 0.301,0.01 0.248,0.01C0.222,0.01 0.197,0.008 0.173,0.005C0.15,0.002 0.127,-0.002 0.106,-0.007C0.085,-0.013 0.066,-0.02 0.049,-0.028L0.049,-0.139C0.078,-0.126 0.11,-0.114 0.146,-0.104C0.182,-0.094 0.218,-0.089 0.255,-0.089C0.286,-0.089 0.311,-0.093 0.331,-0.101C0.351,-0.109 0.366,-0.12 0.375,-0.135C0.385,-0.15 0.39,-0.167 0.39,-0.187C0.39,-0.208 0.384,-0.226 0.373,-0.241C0.362,-0.255 0.344,-0.269 0.321,-0.281C0.299,-0.293 0.27,-0.306 0.235,-0.32C0.212,-0.33 0.189,-0.34 0.168,-0.353C0.147,-0.365 0.128,-0.379 0.111,-0.395C0.095,-0.411 0.082,-0.431 0.072,-0.453C0.062,-0.475 0.058,-0.501 0.058,-0.532C0.058,-0.572 0.067,-0.607 0.086,-0.635C0.106,-0.664 0.133,-0.686 0.168,-0.701C0.204,-0.716 0.245,-0.724 0.292,-0.724C0.33,-0.724 0.365,-0.72 0.398,-0.712C0.431,-0.705 0.464,-0.694 0.496,-0.679L0.458,-0.585C0.429,-0.597 0.401,-0.607 0.373,-0.614C0.346,-0.621 0.318,-0.625 0.289,-0.625C0.264,-0.625 0.243,-0.621 0.226,-0.613C0.209,-0.606 0.196,-0.595 0.187,-0.582C0.178,-0.568 0.173,-0.552 0.173,-0.534C0.173,-0.513 0.178,-0.495 0.188,-0.481C0.199,-0.467 0.215,-0.454 0.236,-0.442C0.258,-0.431 0.286,-0.418 0.32,-0.403C0.36,-0.387 0.393,-0.37 0.42,-0.352C0.448,-0.334 0.469,-0.313 0.484,-0.288C0.499,-0.263 0.506,-0.232 0.506,-0.194Z" style="fill:rgb(77,82,100);fill-rule:nonzero;"/>
                    </g>
                </g>
                <g transform="matrix(1,0,0,1,-27.11,5.80528)">
                    <g transform="matrix(20.2063,0,0,20.2063,533.704,108.065)">
                        <path d="M0.277,-0.139L0.277,-0.578L0.408,-0.578C0.461,-0.578 0.501,-0.566 0.526,-0.544C0.552,-0.522 0.564,-0.489 0.564,-0.446C0.564,-0.415 0.556,-0.39 0.541,-0.372C0.525,-0.353 0.506,-0.34 0.486,-0.332L0.602,-0.139L0.516,-0.139L0.418,-0.31L0.354,-0.31L0.354,-0.139L0.277,-0.139ZM0.354,-0.372L0.405,-0.372C0.432,-0.372 0.452,-0.378 0.466,-0.392C0.481,-0.405 0.488,-0.423 0.488,-0.444C0.488,-0.469 0.481,-0.486 0.468,-0.497C0.455,-0.508 0.434,-0.513 0.404,-0.513L0.354,-0.513L0.354,-0.372ZM0.416,0.01C0.363,0.01 0.314,0.001 0.269,-0.018C0.224,-0.036 0.186,-0.061 0.152,-0.094C0.119,-0.127 0.094,-0.166 0.076,-0.21C0.058,-0.255 0.049,-0.304 0.049,-0.357C0.049,-0.409 0.058,-0.457 0.076,-0.502C0.095,-0.547 0.121,-0.585 0.154,-0.619C0.187,-0.652 0.226,-0.678 0.271,-0.696C0.315,-0.715 0.364,-0.724 0.416,-0.724C0.467,-0.724 0.515,-0.715 0.559,-0.697C0.604,-0.679 0.643,-0.653 0.676,-0.62C0.71,-0.587 0.736,-0.548 0.755,-0.503C0.774,-0.459 0.783,-0.41 0.783,-0.357C0.783,-0.304 0.774,-0.255 0.756,-0.21C0.738,-0.166 0.712,-0.127 0.679,-0.094C0.646,-0.061 0.607,-0.036 0.563,-0.018C0.518,0.001 0.469,0.01 0.416,0.01ZM0.416,-0.047C0.458,-0.047 0.498,-0.055 0.535,-0.07C0.571,-0.085 0.604,-0.107 0.632,-0.134C0.66,-0.162 0.682,-0.195 0.697,-0.233C0.713,-0.271 0.721,-0.312 0.721,-0.357C0.721,-0.4 0.714,-0.44 0.698,-0.477C0.683,-0.514 0.662,-0.548 0.634,-0.576C0.607,-0.605 0.575,-0.627 0.538,-0.643C0.5,-0.659 0.46,-0.667 0.416,-0.667C0.372,-0.667 0.331,-0.66 0.294,-0.645C0.257,-0.629 0.224,-0.608 0.197,-0.58C0.169,-0.552 0.148,-0.519 0.132,-0.481C0.117,-0.444 0.11,-0.402 0.11,-0.357C0.11,-0.313 0.117,-0.272 0.132,-0.234C0.147,-0.197 0.168,-0.164 0.196,-0.136C0.223,-0.108 0.256,-0.086 0.293,-0.071C0.33,-0.055 0.371,-0.047 0.416,-0.047Z" style="fill:rgb(77,82,100);fill-rule:nonzero;"/>
                    </g>
                </g>
            </g>
            <g id="Advising-App™" serif:id="Advising App™" transform="matrix(1,0,0,1,3,85)">
                <g transform="matrix(110,0,0,110,0,0)">
                    <path d="M0.515,-0L0.48,-0.134L0.248,-0.134L0.212,-0L0,-0L0.233,-0.717L0.49,-0.717L0.726,-0L0.515,-0ZM0.44,-0.292L0.409,-0.409C0.406,-0.422 0.401,-0.44 0.395,-0.463C0.389,-0.487 0.383,-0.512 0.376,-0.537C0.371,-0.562 0.366,-0.583 0.363,-0.599C0.36,-0.583 0.356,-0.563 0.35,-0.539C0.345,-0.515 0.339,-0.491 0.333,-0.468C0.328,-0.444 0.323,-0.425 0.319,-0.409L0.288,-0.292L0.44,-0.292Z" style="fill:rgb(77,82,100);fill-rule:nonzero;"/>
                </g>
                <g transform="matrix(110,0,0,110,79.8682,0)">
                    <path d="M0.683,-0.372C0.683,-0.289 0.668,-0.22 0.637,-0.165C0.606,-0.11 0.562,-0.069 0.506,-0.041C0.45,-0.014 0.384,-0 0.308,-0L0.077,-0L0.077,-0.714L0.324,-0.714C0.401,-0.714 0.466,-0.701 0.52,-0.674C0.573,-0.648 0.613,-0.609 0.641,-0.559C0.669,-0.508 0.683,-0.446 0.683,-0.372ZM0.483,-0.365C0.483,-0.409 0.477,-0.444 0.465,-0.473C0.454,-0.501 0.437,-0.523 0.414,-0.537C0.39,-0.551 0.361,-0.558 0.326,-0.558L0.27,-0.558L0.27,-0.158L0.313,-0.158C0.372,-0.158 0.415,-0.175 0.442,-0.209C0.469,-0.243 0.483,-0.295 0.483,-0.365Z" style="fill:rgb(77,82,100);fill-rule:nonzero;"/>
                </g>
                <g transform="matrix(110,0,0,110,160.596,0)">
                    <path d="M0.694,-0.714L0.46,-0L0.233,-0L0,-0.714L0.217,-0.714L0.314,-0.352C0.318,-0.338 0.322,-0.321 0.326,-0.299C0.331,-0.278 0.335,-0.257 0.339,-0.236C0.344,-0.215 0.346,-0.197 0.347,-0.184C0.348,-0.197 0.351,-0.215 0.354,-0.235C0.358,-0.256 0.362,-0.277 0.366,-0.298C0.371,-0.319 0.375,-0.336 0.379,-0.35L0.478,-0.714L0.694,-0.714Z" style="fill:rgb(77,82,100);fill-rule:nonzero;"/>
                </g>
                <g transform="matrix(110,0,0,110,236.919,0)">
                    <rect x="0.077" y="-0.714" width="0.194" height="0.714" style="fill:rgb(77,82,100);fill-rule:nonzero;"/>
                </g>
                <g transform="matrix(110,0,0,110,275.215,0)">
                    <path d="M0.544,-0.217C0.544,-0.178 0.534,-0.141 0.515,-0.106C0.495,-0.072 0.465,-0.044 0.423,-0.022C0.382,-0.001 0.329,0.01 0.264,0.01C0.232,0.01 0.203,0.008 0.178,0.005C0.154,0.002 0.131,-0.002 0.11,-0.009C0.089,-0.016 0.067,-0.024 0.044,-0.035L0.044,-0.207C0.083,-0.188 0.122,-0.173 0.161,-0.162C0.201,-0.152 0.236,-0.147 0.268,-0.147C0.287,-0.147 0.303,-0.149 0.315,-0.154C0.327,-0.158 0.336,-0.165 0.342,-0.172C0.348,-0.181 0.351,-0.19 0.351,-0.2C0.351,-0.213 0.347,-0.223 0.338,-0.231C0.329,-0.24 0.316,-0.249 0.297,-0.259C0.278,-0.268 0.253,-0.28 0.222,-0.294C0.196,-0.306 0.172,-0.319 0.15,-0.332C0.129,-0.345 0.111,-0.36 0.096,-0.376C0.081,-0.393 0.069,-0.413 0.061,-0.436C0.053,-0.458 0.049,-0.485 0.049,-0.515C0.049,-0.561 0.06,-0.599 0.083,-0.63C0.105,-0.662 0.137,-0.685 0.177,-0.701C0.218,-0.716 0.265,-0.724 0.318,-0.724C0.364,-0.724 0.406,-0.719 0.443,-0.708C0.481,-0.698 0.514,-0.686 0.544,-0.673L0.485,-0.524C0.454,-0.538 0.424,-0.549 0.395,-0.557C0.365,-0.566 0.337,-0.57 0.312,-0.57C0.295,-0.57 0.282,-0.568 0.271,-0.563C0.261,-0.56 0.253,-0.554 0.248,-0.547C0.243,-0.541 0.24,-0.533 0.24,-0.524C0.24,-0.513 0.244,-0.503 0.253,-0.494C0.262,-0.485 0.276,-0.476 0.296,-0.465C0.317,-0.455 0.345,-0.442 0.38,-0.426C0.415,-0.41 0.444,-0.393 0.469,-0.375C0.493,-0.357 0.512,-0.335 0.524,-0.31C0.537,-0.285 0.544,-0.254 0.544,-0.217Z" style="fill:rgb(77,82,100);fill-rule:nonzero;"/>
                </g>
                <g transform="matrix(110,0,0,110,338.701,0)">
                    <rect x="0.077" y="-0.714" width="0.194" height="0.714" style="fill:rgb(77,82,100);fill-rule:nonzero;"/>
                </g>
                <g transform="matrix(110,0,0,110,376.997,0)">
                    <path d="M0.757,-0L0.504,-0L0.243,-0.503L0.239,-0.503C0.24,-0.488 0.242,-0.469 0.243,-0.448C0.244,-0.426 0.246,-0.404 0.247,-0.382C0.248,-0.36 0.248,-0.34 0.248,-0.322L0.248,-0L0.077,-0L0.077,-0.714L0.329,-0.714L0.589,-0.218L0.592,-0.218C0.591,-0.233 0.59,-0.251 0.589,-0.272C0.588,-0.293 0.587,-0.314 0.586,-0.335C0.585,-0.356 0.585,-0.375 0.585,-0.391L0.585,-0.714L0.757,-0.714L0.757,-0Z" style="fill:rgb(77,82,100);fill-rule:nonzero;"/>
                </g>
                <g transform="matrix(110,0,0,110,468.735,0)">
                    <path d="M0.364,-0.418L0.672,-0.418L0.672,-0.033C0.635,-0.021 0.593,-0.01 0.545,-0.002C0.498,0.006 0.448,0.01 0.396,0.01C0.327,0.01 0.267,-0.004 0.215,-0.03C0.164,-0.057 0.123,-0.097 0.094,-0.152C0.065,-0.207 0.051,-0.276 0.051,-0.359C0.051,-0.434 0.065,-0.498 0.094,-0.553C0.122,-0.607 0.165,-0.65 0.22,-0.679C0.276,-0.709 0.345,-0.724 0.426,-0.724C0.47,-0.724 0.513,-0.72 0.553,-0.711C0.593,-0.703 0.628,-0.692 0.657,-0.679L0.596,-0.528C0.57,-0.541 0.544,-0.55 0.516,-0.556C0.488,-0.563 0.459,-0.566 0.427,-0.566C0.384,-0.566 0.35,-0.556 0.324,-0.537C0.298,-0.518 0.279,-0.492 0.268,-0.46C0.256,-0.428 0.25,-0.393 0.25,-0.354C0.25,-0.31 0.256,-0.272 0.269,-0.242C0.281,-0.211 0.3,-0.188 0.324,-0.172C0.348,-0.157 0.378,-0.149 0.412,-0.149C0.424,-0.149 0.437,-0.15 0.454,-0.151C0.47,-0.153 0.483,-0.155 0.491,-0.157L0.491,-0.269L0.364,-0.269L0.364,-0.418Z" style="fill:rgb(77,82,100);fill-rule:nonzero;"/>
                </g>
                <g transform="matrix(110,0,0,110,578.735,0)">
                    <path d="M0.515,-0L0.48,-0.134L0.248,-0.134L0.212,-0L0,-0L0.233,-0.717L0.49,-0.717L0.726,-0L0.515,-0ZM0.44,-0.292L0.409,-0.409C0.406,-0.422 0.401,-0.44 0.395,-0.463C0.389,-0.487 0.383,-0.512 0.376,-0.537C0.371,-0.562 0.366,-0.583 0.363,-0.599C0.36,-0.583 0.356,-0.563 0.35,-0.539C0.345,-0.515 0.339,-0.491 0.333,-0.468C0.328,-0.444 0.323,-0.425 0.319,-0.409L0.288,-0.292L0.44,-0.292Z" style="fill:rgb(77,82,100);fill-rule:nonzero;"/>
                </g>
                <g transform="matrix(110,0,0,110,658.604,0)">
                    <path d="M0.324,-0.714C0.415,-0.714 0.482,-0.694 0.527,-0.655C0.573,-0.615 0.595,-0.559 0.595,-0.487C0.595,-0.454 0.59,-0.423 0.581,-0.393C0.572,-0.363 0.557,-0.336 0.536,-0.313C0.515,-0.29 0.487,-0.271 0.452,-0.257C0.418,-0.244 0.375,-0.237 0.324,-0.237L0.27,-0.237L0.27,-0L0.077,-0L0.077,-0.714L0.324,-0.714ZM0.32,-0.558L0.27,-0.558L0.27,-0.394L0.308,-0.394C0.325,-0.394 0.34,-0.397 0.354,-0.402C0.369,-0.408 0.38,-0.417 0.389,-0.43C0.397,-0.443 0.402,-0.46 0.402,-0.482C0.402,-0.504 0.395,-0.523 0.382,-0.537C0.368,-0.551 0.348,-0.558 0.32,-0.558Z" style="fill:rgb(77,82,100);fill-rule:nonzero;"/>
                </g>
                <g transform="matrix(110,0,0,110,728.105,0)">
                    <path d="M0.324,-0.714C0.415,-0.714 0.482,-0.694 0.527,-0.655C0.573,-0.615 0.595,-0.559 0.595,-0.487C0.595,-0.454 0.59,-0.423 0.581,-0.393C0.572,-0.363 0.557,-0.336 0.536,-0.313C0.515,-0.29 0.487,-0.271 0.452,-0.257C0.418,-0.244 0.375,-0.237 0.324,-0.237L0.27,-0.237L0.27,-0L0.077,-0L0.077,-0.714L0.324,-0.714ZM0.32,-0.558L0.27,-0.558L0.27,-0.394L0.308,-0.394C0.325,-0.394 0.34,-0.397 0.354,-0.402C0.369,-0.408 0.38,-0.417 0.389,-0.43C0.397,-0.443 0.402,-0.46 0.402,-0.482C0.402,-0.504 0.395,-0.523 0.382,-0.537C0.368,-0.551 0.348,-0.558 0.32,-0.558Z" style="fill:rgb(77,82,100);fill-rule:nonzero;"/>
                </g>
            </g>
        </g>
        <g transform="matrix(0.211264,0,0,0.1825,12.6208,11.1439)">
            <g transform="matrix(156,0,0,156,3735.89,86.0111)">
                <path d="M0.274,-0.138L0.274,-0.58L0.407,-0.58C0.462,-0.58 0.501,-0.569 0.527,-0.545C0.552,-0.522 0.565,-0.489 0.565,-0.446C0.565,-0.414 0.557,-0.389 0.541,-0.371C0.525,-0.353 0.507,-0.34 0.487,-0.332L0.603,-0.138L0.512,-0.138L0.417,-0.306L0.355,-0.306L0.355,-0.138L0.274,-0.138ZM0.355,-0.373L0.405,-0.373C0.431,-0.373 0.45,-0.38 0.463,-0.393C0.476,-0.406 0.483,-0.423 0.483,-0.444C0.483,-0.468 0.477,-0.485 0.465,-0.495C0.453,-0.506 0.433,-0.511 0.404,-0.511L0.355,-0.511L0.355,-0.373ZM0.416,0.01C0.363,0.01 0.314,0.001 0.269,-0.017C0.224,-0.035 0.186,-0.061 0.152,-0.094C0.119,-0.127 0.094,-0.165 0.076,-0.21C0.058,-0.255 0.049,-0.304 0.049,-0.357C0.049,-0.408 0.058,-0.455 0.076,-0.5C0.095,-0.544 0.121,-0.583 0.154,-0.617C0.187,-0.65 0.226,-0.676 0.271,-0.695C0.316,-0.715 0.364,-0.724 0.416,-0.724C0.467,-0.724 0.514,-0.715 0.559,-0.697C0.603,-0.679 0.642,-0.653 0.676,-0.62C0.709,-0.587 0.736,-0.549 0.754,-0.504C0.774,-0.459 0.783,-0.41 0.783,-0.357C0.783,-0.304 0.774,-0.255 0.756,-0.21C0.738,-0.165 0.712,-0.127 0.679,-0.094C0.646,-0.061 0.608,-0.035 0.563,-0.017C0.518,0.001 0.469,0.01 0.416,0.01ZM0.416,-0.054C0.457,-0.054 0.495,-0.062 0.531,-0.076C0.567,-0.091 0.599,-0.112 0.626,-0.139C0.653,-0.166 0.675,-0.198 0.69,-0.235C0.705,-0.272 0.713,-0.313 0.713,-0.357C0.713,-0.399 0.705,-0.438 0.69,-0.475C0.675,-0.511 0.654,-0.544 0.627,-0.572C0.601,-0.6 0.569,-0.622 0.533,-0.637C0.497,-0.653 0.458,-0.661 0.416,-0.661C0.373,-0.661 0.334,-0.654 0.297,-0.639C0.261,-0.624 0.23,-0.603 0.203,-0.575C0.176,-0.548 0.155,-0.516 0.14,-0.479C0.125,-0.442 0.117,-0.401 0.117,-0.357C0.117,-0.313 0.125,-0.272 0.139,-0.235C0.154,-0.198 0.174,-0.166 0.201,-0.139C0.228,-0.112 0.259,-0.091 0.296,-0.076C0.332,-0.062 0.372,-0.054 0.416,-0.054Z" style="fill:rgb(78,82,100);fill-rule:nonzero;"/>
            </g>
        </g>
    </g>
</svg>
