<svg version="1.2" xmlns="http://www.w3.org/2000/svg" viewBox="0 0 884 146" width="303" height="50">
	<title>advising-app-light</title>
	<style>
		.s0 { fill: #2c8cca } 
		.s1 { fill: #4d5264 } 
	</style>
	<g id="_Artboards_">
	</g>
	<g id="Layer 1">
		<g id="&lt;Group&gt;">
		</g>
		<path id="&lt;Path&gt;" class="s0" d="m583 124.4h296v6.7h-296z"/>
		<path id="BY CANYON GBS®" class="s1" aria-label="BY CANYON GBS®"  d="m4.4 141v-27.2h8.1q5.3 0 7.9 1.6 2.7 1.5 2.7 5.2 0 1.6-0.6 2.8-0.5 1.3-1.5 2.1-1.1 0.8-2.6 1.1v0.2q1.6 0.2 2.8 0.9 1.3 0.7 2 2.1 0.7 1.3 0.7 3.4 0 2.5-1.2 4.2-1.2 1.8-3.4 2.7-2.1 0.9-5.1 0.9zm4.4-23.5v7.5h4.3q3 0 4.2-1 1.2-0.9 1.2-2.8 0-2-1.4-2.8-1.4-0.9-4.4-0.9zm4.5 11.1h-4.5v8.6h4.7q3.1 0 4.4-1.2 1.2-1.2 1.2-3.2 0-1.3-0.5-2.2-0.6-0.9-1.9-1.5-1.3-0.5-3.4-0.5zm34.1-14.8l6.4 12.4 6.5-12.4h4.8l-9 16.6v10.6h-4.5v-10.4l-9-16.8zm76.1 3.4q-1.9 0-3.5 0.7-1.5 0.7-2.5 2.1-1.1 1.3-1.6 3.2-0.6 1.9-0.6 4.2 0 3.2 0.9 5.5 0.9 2.2 2.7 3.4 1.8 1.3 4.6 1.3 1.7 0 3.4-0.4 1.6-0.3 3.3-0.9v3.8q-1.6 0.6-3.3 0.9-1.7 0.3-3.9 0.3-4.2 0-6.9-1.7-2.7-1.7-4.1-4.8-1.3-3.2-1.3-7.4 0-3.1 0.8-5.6 0.9-2.6 2.5-4.5 1.7-1.8 4-2.8 2.5-1 5.6-1 2 0 4 0.4 1.9 0.5 3.6 1.3l-1.5 3.7q-1.4-0.7-3-1.2-1.5-0.5-3.2-0.5zm50.9 23.8h-4.8l-2.6-7.6h-10.4l-2.6 7.6h-4.7l10.1-27.3h4.9zm-16.5-11.3h8l-2.6-7.4q-0.2-0.5-0.5-1.4-0.2-0.9-0.5-1.8-0.3-0.9-0.5-1.6-0.2 0.8-0.4 1.7-0.3 1-0.6 1.8-0.2 0.8-0.3 1.3zm59.5-15.8v27.1h-5.5l-13.3-21.6h-0.2q0.1 1.1 0.2 2.3 0 1.2 0.1 2.5 0 1.3 0.1 2.6v14.2h-4.1v-27.1h5.5l13.2 21.5h0.2q-0.1-1-0.1-2.2-0.1-1.2-0.1-2.5-0.1-1.3-0.1-2.5v-14.3zm25.2 0l6.4 12.4 6.4-12.4h4.8l-9 16.6v10.5h-4.4v-10.4l-9.1-16.7zm62.1 13.5q0 3.1-0.8 5.7-0.8 2.6-2.4 4.4-1.6 1.9-3.9 2.9-2.4 1-5.6 1-3.3 0-5.6-1-2.4-1-4-2.9-1.6-1.8-2.3-4.4-0.8-2.6-0.8-5.7 0-4.2 1.4-7.3 1.3-3.2 4.2-4.9 2.8-1.7 7.1-1.7 4.3 0 7.1 1.7 2.8 1.7 4.2 4.8 1.4 3.2 1.4 7.4zm-20.7 0q0 3.1 0.8 5.4 0.9 2.3 2.6 3.6 1.8 1.2 4.6 1.2 2.8 0 4.6-1.2 1.7-1.3 2.6-3.6 0.8-2.3 0.8-5.4 0-4.8-1.9-7.5-1.9-2.7-6.1-2.7-2.8 0-4.6 1.3-1.7 1.2-2.6 3.5-0.8 2.2-0.8 5.4zm65.9-13.5v27.1h-5.5l-13.3-21.6h-0.1q0 1.1 0.1 2.3 0.1 1.2 0.1 2.5 0.1 1.3 0.1 2.6v14.2h-4v-27.1h5.4l13.3 21.5h0.1q-0.1-1-0.1-2.2-0.1-1.2-0.1-2.5-0.1-1.3-0.1-2.5v-14.3zm61.5 16.2v-3.8h10.1v13.6q-2.1 0.7-4.4 1.1-2.3 0.4-5.1 0.4-4.2 0-7-1.7-2.9-1.6-4.4-4.7-1.5-3.2-1.5-7.6 0-4.2 1.7-7.3 1.6-3.2 4.8-4.9 3.1-1.7 7.6-1.7 2.2 0 4.3 0.4 2.1 0.5 3.8 1.2l-1.5 3.7q-1.4-0.7-3.1-1.1-1.7-0.4-3.6-0.4-2.9 0-5 1.2-2.1 1.3-3.2 3.6-1.2 2.3-1.2 5.4 0 3 0.9 5.3 1 2.3 2.9 3.6 1.9 1.2 5 1.2 1.6 0 2.6-0.2 1.1-0.1 2-0.3v-7zm33.4 10.9v-27.1h8.1q5.2 0 7.9 1.5 2.7 1.5 2.7 5.3 0 1.5-0.6 2.8-0.5 1.2-1.6 2-1 0.8-2.5 1.1v0.2q1.5 0.3 2.8 1 1.2 0.7 1.9 2 0.7 1.3 0.7 3.4 0 2.5-1.1 4.2-1.2 1.8-3.4 2.7-2.2 0.9-5.2 0.9zm4.5-23.4v7.5h4.3q3 0 4.2-1 1.1-1 1.1-2.9 0-1.9-1.4-2.8-1.3-0.8-4.3-0.8zm4.4 11.1h-4.4v8.6h4.6q3.2 0 4.4-1.2 1.3-1.2 1.3-3.3 0-1.3-0.6-2.2-0.5-0.9-1.8-1.4-1.3-0.5-3.5-0.5zm48.6 4.9q0 2.4-1.2 4.2-1.2 1.7-3.4 2.7-2.2 0.9-5.2 0.9-1.5 0-2.9-0.2-1.3-0.2-2.5-0.5-1.2-0.3-2.2-0.8v-4.2q1.7 0.8 3.7 1.4 2 0.5 4.1 0.5 1.8 0 2.9-0.4 1.2-0.5 1.7-1.3 0.6-0.9 0.6-2 0-1.2-0.7-2-0.6-0.9-1.9-1.6-1.3-0.7-3.3-1.5-1.3-0.5-2.6-1.2-1.2-0.7-2.1-1.6-1-0.9-1.5-2.2-0.6-1.3-0.6-3 0-2.3 1.1-3.9 1.1-1.7 3.1-2.5 2.1-0.9 4.8-0.9 2.1 0 4 0.4 1.9 0.5 3.7 1.3l-1.4 3.6q-1.7-0.7-3.3-1.1-1.5-0.4-3.2-0.4-1.4 0-2.4 0.4-0.9 0.4-1.5 1.2-0.5 0.8-0.5 1.8 0 1.2 0.6 2 0.6 0.8 1.8 1.5 1.3 0.7 3.2 1.5 2.3 0.9 3.8 1.9 1.6 1.1 2.4 2.5 0.9 1.4 0.9 3.5zm31.8 2.1h-2.9v-16.6h5q3 0 4.5 1.2 1.4 1.3 1.4 3.8 0 1.7-0.9 2.8-0.9 1-2 1.5l4.4 7.3h-3.3l-3.7-6.5h-2.5zm0-14.2v5.4h2q1.5 0 2.3-0.8 0.8-0.7 0.8-2 0-1.4-0.7-2-0.8-0.6-2.4-0.6zm2.3 19.9q-3 0-5.6-1.1-2.5-1-4.4-2.9-1.9-1.8-2.9-4.4-1-2.5-1-5.5 0-3 1-5.6 1.1-2.5 3-4.4 1.9-1.9 4.4-2.9 2.5-1.1 5.5-1.1 2.9 0 5.5 1 2.5 1.1 4.4 3 1.9 1.8 3 4.4 1.1 2.5 1.1 5.6 0 3-1.1 5.5-1 2.6-2.9 4.4-1.8 1.9-4.4 2.9-2.5 1.1-5.6 1.1zm0-2.2q2.4 0 4.5-0.8 2.1-0.9 3.7-2.5 1.6-1.6 2.5-3.7 0.9-2.2 0.9-4.7 0-2.5-0.8-4.6-0.9-2.1-2.5-3.8-1.5-1.6-3.6-2.5-2.2-0.9-4.7-0.9-2.5 0-4.6 0.8-2.1 0.9-3.7 2.5-1.6 1.6-2.4 3.7-0.9 2.2-0.9 4.8 0 2.5 0.9 4.6 0.8 2.1 2.4 3.7 1.5 1.6 3.7 2.5 2.1 0.9 4.6 0.9z"/>
		<path id="Advising App™" class="s1" aria-label="Advising App™"  d="m82.9 85h-23.2l-3.9-14.7h-25.5l-4 14.7h-23.3l25.6-78.8h28.3zm-48.2-32.2h16.8l-3.4-12.9q-1.2-4.3-2.9-11.1-1.7-6.8-2.2-9.8-0.5 2.8-2 9.1-1.4 6.3-6.3 24.7zm123.4-8.8q0 19.7-10.9 30.3-10.8 10.7-30.4 10.7h-25.4v-78.6h27.2q18.9 0 29.2 9.7 10.3 9.7 10.3 27.9zm-22.1 0.8q0-10.8-4.3-16-4.2-5.2-12.9-5.2h-6.2v43.9l4.8 0.1q9.6 0 14.1-5.6 4.5-5.7 4.5-17.2zm68.3 1.6l10.9-40h23.7l-25.7 78.6h-25l-25.6-78.6h23.8l10.7 39.8q3.3 13.3 3.7 18.5 0.3-3.8 1.5-9.4 1.1-5.6 2-8.9zm64.4 38.6h-21.3v-78.6h21.3zm68.3-23.8q0 7.3-3.7 13-3.7 5.6-10.7 8.8-6.9 3.1-16.3 3.1-7.9 0-13.2-1.1-5.3-1.1-11.1-3.8v-18.9q6.1 3.1 12.7 4.8 6.5 1.8 12 1.8 4.7 0 6.9-1.7 2.2-1.6 2.2-4.2 0-1.6-0.9-2.8-0.9-1.2-2.8-2.5-2-1.2-10.5-5-7.6-3.5-11.5-6.8-3.8-3.3-5.7-7.5-1.8-4.2-1.8-10 0-10.9 7.9-17 7.9-6 21.7-6 12.2 0 24.8 5.6l-6.5 16.4q-11-5.1-19-5.1-4.1 0-6 1.5-1.9 1.4-1.9 3.6 0 2.3 2.4 4.1 2.4 1.9 13 6.7 10.1 4.6 14.1 9.8 3.9 5.2 3.9 13.2zm33.5 23.8h-21.3v-78.5h21.3zm91.7-78.5v78.5h-27.8l-28.7-55.3h-0.5q1.1 13 1.1 19.9v35.4h-18.8v-78.5h27.7l28.6 54.5h0.3q-0.8-11.8-0.8-19v-35.5zm48.5 48.9v-16.4h33.9v42.3q-13.8 4.8-30.3 4.8-18.2 0-28.1-10.6-9.9-10.5-9.9-30 0-19 10.8-29.6 10.9-10.6 30.4-10.6 7.5 0 14 1.4 6.6 1.4 11.5 3.6l-6.7 16.6q-8.5-4.1-18.6-4.1-9.3 0-14.4 6-5.1 6-5.1 17.3 0 11 4.6 16.8 4.6 5.7 13.2 5.7 4.8 0 8.7-0.9v-12.3zm149.9 29.6h-23.2l-3.9-14.7h-25.5l-4 14.7h-23.3l25.7-78.8h28.3zm-48.2-32.2h16.7l-3.4-12.9q-1.2-4.3-2.9-11.1-1.7-6.8-2.2-9.7-0.5 2.7-1.9 9-1.4 6.3-6.3 24.7zm113.6-21.4q0 13.2-7.8 20.4-7.7 7.1-22 7.1h-5.9v26.1h-21.3v-78.6h27.2q14.9 0 22.4 6.5 7.4 6.5 7.4 18.5zm-35.7-7.8v18h3.8q4.8 0 7.6-2.7 2.8-2.7 2.8-7.4 0-7.9-8.8-7.9zm105.3 7.8q0 13.2-7.8 20.4-7.7 7.1-22 7.1h-6v26.1h-21.2v-78.6h27.2q14.9 0 22.3 6.5 7.5 6.5 7.5 18.5zm-35.8-7.8v18h3.9q4.8 0 7.6-2.7 2.8-2.7 2.8-7.4 0-7.9-8.8-7.9zm61.5-7.7v29.3h-10.6v-29.3h-9.1v-9.5h28.8v9.5zm40 29.3h-8.9l-7.6-27.4h-0.5q0.4 3 0.4 5.9v21.5h-10.4v-38.8h15.4l7.4 25.8 8-25.8h14.8v38.8h-10.4v-21.5q0-3.7 0.3-5.9h-0.4z"/>
	</g>
</svg>