<svg
    fill="currentColor"
    viewBox="0 0 1024 1024"
    version="1.1"
    xmlns="http://www.w3.org/2000/svg"
>
    <path
        d="M879.2 131.6c-103-95.5-264.1-88-361.4 11.2L474.7 184c-13.1 13.1-3.7 35.6 13.1 37.5 26.2 1.9 52.4 7.5 78.7 15 7.5 1.9 16.9 0 22.5-5.6l9.4-9.4c54.3-54.3 142.3-59.9 198.5-11.2 63.7 54.3 65.5 151.7 7.5 209.7L662 562.3c-18.7 18.7-41.2 30-63.7 37.5-30 7.5-61.8 5.6-89.9-5.6-16.9-7.5-33.7-16.9-48.7-31.8-7.5-7.5-13.1-15-18.7-24.3-7.5-13.1-24.3-15-33.7-3.7l-52.4 52.4c-7.5 7.5-7.5 18.7-1.9 28.1 7.5 11.2 16.9 20.6 26.2 30 13.1 13.1 30 26.2 44.9 35.6 26.2 16.9 56.2 28.1 86.1 33.7 58.1 11.2 121.7 1.9 174.2-26.2 20.6-11.2 41.2-26.2 58.1-43.1l142.3-142.3c104.9-103.2 101.2-271.8-5.6-371zM534.7 803.9l-39.3-5.6s-26.2-5.6-39.3-11.2c-7.5-1.9-16.9 0-22.5 5.6l-9.4 9.4c-54.3 54.3-142.3 59.9-198.5 11.2-63.7-54.3-65.5-151.7-7.5-209.7l142.3-142.3c18.7-18.7 41.2-30 63.7-37.5 30-7.5 61.8-5.6 89.9 5.6 16.9 7.5 33.7 16.9 48.7 31.8 7.5 7.5 13.1 15 18.7 24.3 7.5 13.1 24.3 15 33.7 3.7l52.4-52.4c7.5-7.5 7.5-18.7 1.9-28.1-7.5-11.2-16.9-20.6-26.2-30-13.1-13.1-28.1-26.2-44.9-35.6-26.2-16.9-56.2-28.1-88-33.7-58.1-11.2-121.7-1.9-174.2 26.2-20.6 11.2-41.2 26.2-58.1 43.1L141.4 515.5c-99.3 99.3-106.7 260.3-11.2 361.4C229.5 985.5 398 987.4 501 884.4l46.8-46.8c13.1-9.4 3.7-31.9-13.1-33.7z"
    />
</svg>
